<svg id="Layer_1" data-name="Layer 1" xmlns="http://www.w3.org/2000/svg" viewBox="0 0 45.9 38.44"><defs><style>.cls-1{fill:#fff;}</style></defs><title>Burger menu</title><g id="Layer_2" data-name="Layer 2"><g id="Layer_1-2" data-name="Layer 1-2"><path class="cls-1" d="M29.78,31.14H42.34c2,0,3.46.63,3.54,2.72S44.51,37,42.39,37H17c-2.11,0-3.6-.88-3.55-3.09s1.49-2.81,3.49-2.78C21.21,31.18,25.49,31.14,29.78,31.14Z" transform="translate(0 0.01)"/><path class="cls-1" d="M29.37,7.27H17.11c-2.12,0-3.62-.74-3.65-3s1.53-3,3.62-3H42.2c2.07,0,3.67.66,3.65,3s-1.49,3-3.62,3C38,7.23,33.66,7.27,29.37,7.27Z" transform="translate(0 0.01)"/><path class="cls-1" d="M30,16.25H42.26c2.11,0,3.65.67,3.64,2.94s-1.54,3-3.64,3H17.14c-2.1,0-3.62-.79-3.63-3s1.53-3,3.64-2.94C21.38,16.3,25.67,16.25,30,16.25Z" transform="translate(0 0.01)"/><path class="cls-1" d="M8.74,34.06a4.33,4.33,0,0,1-4.29,4.37h0a4.41,4.41,0,0,1,.09-8.82,4.26,4.26,0,0,1,4.22,4.3Q8.74,34,8.74,34.06Z" transform="translate(0 0.01)"/><path class="cls-1" d="M4.53,0A4,4,0,0,1,8.72,4.36a4.18,4.18,0,0,1-4,4.31H4.43A4.36,4.36,0,0,1,0,4.39q0-.14,0-.28A4.19,4.19,0,0,1,4.26,0Z" transform="translate(0 0.01)"/><path class="cls-1" d="M4.5,23.52A4.29,4.29,0,0,1,.05,19.39v-.05a4.2,4.2,0,0,1,4.41-4.49,4,4,0,0,1,4.26,4.3,4.16,4.16,0,0,1-3.94,4.37Z" transform="translate(0 0.01)"/></g></g></svg>