<svg xmlns="http://www.w3.org/2000/svg" viewBox="0 0 191.87 191.94"><defs><style>.cls-1{fill:#fff;}</style></defs><title>Asset 2</title><g id="Layer_2" data-name="Layer 2"><g id="Layer_1-2" data-name="Layer 1"><path class="cls-1" d="M121.76,142.5C90.5,163.39,43.66,161,16.2,125.3A78,78,0,0,1,22.87,22.55C52.32-6.87,97.15-6,125.65,16.5c34.29,27.09,38.28,73,16.66,105.56a8.22,8.22,0,0,1,2.25,1.21q21.09,21.16,42.12,42.37c3.83,3.84,6,8.25,4.93,13.71a14.78,14.78,0,0,1-10.36,11.78c-5.74,1.92-10.82.27-15.08-4Q144.78,166,123.41,144.74A17.75,17.75,0,0,1,121.76,142.5Zm3.66-64.66a48,48,0,0,0-48-48c-26.11,0-47.81,21.67-48,47.89-.19,26,21.92,48.13,48.05,48.09A48,48,0,0,0,125.42,77.84Z"/></g></g></svg>